<?xml version="1.0" standalone="no"?>
<!DOCTYPE svg PUBLIC "-//W3C//DTD SVG 20010904//EN"
 "http://www.w3.org/TR/2001/REC-SVG-20010904/DTD/svg10.dtd">
<svg version="1.0" xmlns="http://www.w3.org/2000/svg"
 width="213.000000pt" height="237.000000pt" viewBox="0 0 213.000000 237.000000"
 preserveAspectRatio="xMidYMid meet">

<g transform="translate(0.000000,237.000000) scale(0.100000,-0.100000)"
fill="#000000" stroke="none">
<path d="M888 2259 c-117 -10 -215 -33 -318 -74 l-85 -34 -70 25 c-41 15 -102
28 -147 31 -110 8 -111 5 -68 -218 38 -200 37 -245 -9 -435 -17 -66 -33 -145
-37 -174 -4 -30 -15 -68 -25 -85 -55 -93 -89 -356 -71 -540 18 -181 53 -265
104 -252 19 5 32 22 52 66 14 32 26 65 26 73 0 33 15 24 51 -32 27 -42 47 -61
66 -66 15 -4 52 -29 82 -55 30 -27 90 -67 134 -90 l79 -41 -50 48 c-38 37 -54
62 -66 103 -18 63 -22 156 -5 146 5 -4 21 -4 34 -1 32 8 38 46 21 121 l-14 59
41 59 c68 96 176 170 298 202 70 19 209 19 279 0 139 -37 274 -140 331 -253
23 -44 26 -58 18 -92 -12 -51 -3 -87 23 -96 19 -6 20 -12 15 -74 -7 -79 -24
-119 -76 -174 l-36 -38 51 25 c65 33 140 89 181 135 26 30 34 34 47 23 25 -21
56 -2 97 61 22 35 40 55 43 47 58 -198 129 -211 170 -29 55 244 2 664 -90 704
-17 8 -26 37 -59 199 -41 207 -43 272 -11 425 24 113 31 209 16 227 -24 29
-182 10 -263 -32 -28 -14 -33 -13 -108 21 -169 77 -401 108 -651 85z m-75
-299 c85 -26 152 -72 201 -137 l39 -53 27 44 c85 134 302 201 477 148 120 -37
201 -108 255 -227 19 -42 23 -67 23 -155 0 -93 -3 -111 -27 -163 -52 -110
-134 -182 -246 -217 -157 -49 -357 -1 -453 108 l-28 32 -17 -32 -16 -32 -15
28 -14 27 -47 -42 c-57 -50 -103 -74 -179 -94 -112 -29 -247 -13 -339 41 -63
37 -139 125 -165 192 -33 81 -33 223 0 304 24 63 100 154 157 189 97 59 249
75 367 39z"/>
<path d="M591 1709 c-47 -28 -68 -56 -81 -107 -44 -175 177 -286 297 -149 71
81 47 208 -47 258 -48 26 -125 25 -169 -2z m33 -81 c24 -39 -44 -79 -74 -43
-21 25 3 67 37 63 14 -2 31 -11 37 -20z"/>
<path d="M1339 1707 c-18 -12 -44 -38 -57 -57 -20 -30 -23 -45 -20 -96 5 -77
37 -124 103 -149 123 -48 244 41 233 172 -5 60 -27 96 -78 131 -46 31 -134 31
-181 -1z m31 -71 c6 -8 10 -25 8 -38 -6 -42 -78 -32 -78 11 0 37 46 55 70 27z"/>
<path d="M650 731 c0 -28 56 -71 91 -71 53 0 109 41 109 79 0 18 -18 12 -44
-14 -17 -17 -36 -25 -60 -25 -33 0 -66 20 -66 41 0 5 -7 9 -15 9 -8 0 -15 -9
-15 -19z"/>
<path d="M955 740 c-20 -33 57 -85 113 -76 40 6 82 41 82 68 0 25 -19 22 -42
-7 -14 -18 -29 -25 -54 -25 -24 0 -43 8 -60 25 -28 28 -30 29 -39 15z"/>
<path d="M1260 731 c0 -28 56 -71 91 -71 38 0 85 24 100 51 18 35 -5 45 -34
15 -38 -38 -127 -31 -127 9 0 8 -7 15 -15 15 -8 0 -15 -9 -15 -19z"/>
<path d="M810 540 c0 -56 109 -82 164 -39 14 11 26 27 26 35 0 20 -13 18 -32
-6 -10 -11 -29 -22 -43 -26 -32 -8 -83 12 -90 37 -8 25 -25 24 -25 -1z"/>
<path d="M1105 550 c-8 -13 11 -47 35 -60 10 -5 39 -10 65 -10 35 0 51 6 70
25 26 25 32 45 15 45 -5 0 -20 -11 -34 -25 -36 -35 -80 -33 -116 5 -16 17 -31
26 -35 20z"/>
</g>
</svg>
